ModelForces
version=1
nRows=4
nColumns=155
inDegrees=no

This file contains the forces exerted on a model during a simulation.

A force is a generalized force, meaning that it can be either a force (N) or a torque (Nm).

Units are S.I. units (second, meters, Newtons, ...)
Angles are in degrees.

endheader
time	glut_med1_r	glut_med2_r	glut_med3_r	glut_min1_r	glut_min2_r	glut_min3_r	semimem_r	semiten_r	bifemlh_r	bifemsh_r	sar_r	add_long_r	add_brev_r	add_mag1_r	add_mag2_r	add_mag3_r	tfl_r	pect_r	grac_r	glut_max1_r	glut_max2_r	glut_max3_r	iliacus_r	psoas_r	quad_fem_r	gem_r	peri_r	rect_fem_r	vas_med_r	vas_int_r	vas_lat_r	med_gas_r	lat_gas_r	soleus_r	tib_post_r	flex_dig_r	flex_hal_r	tib_ant_r	per_brev_r	per_long_r	per_tert_r	ext_dig_r	ext_hal_r	glut_med1_l	glut_med2_l	glut_med3_l	glut_min1_l	glut_min2_l	glut_min3_l	semimem_l	semiten_l	bifemlh_l	bifemsh_l	sar_l	add_long_l	add_brev_l	add_mag1_l	add_mag2_l	add_mag3_l	tfl_l	pect_l	grac_l	glut_max1_l	glut_max2_l	glut_max3_l	iliacus_l	psoas_l	quad_fem_l	gem_l	peri_l	rect_fem_l	vas_med_l	vas_int_l	vas_lat_l	med_gas_l	lat_gas_l	soleus_l	tib_post_l	flex_dig_l	flex_hal_l	tib_ant_l	per_brev_l	per_long_l	per_tert_l	ext_dig_l	ext_hal_l	ercspn_r	ercspn_l	intobl_r	intobl_l	extobl_r	extobl_l	femur_lat_meniscii_r.femur_lat_r.force.X	femur_lat_meniscii_r.femur_lat_r.force.Y	femur_lat_meniscii_r.femur_lat_r.force.Z	femur_lat_meniscii_r.femur_lat_r.torque.X	femur_lat_meniscii_r.femur_lat_r.torque.Y	femur_lat_meniscii_r.femur_lat_r.torque.Z	femur_lat_meniscii_r.meniscus_lat_r.force.X	femur_lat_meniscii_r.meniscus_lat_r.force.Y	femur_lat_meniscii_r.meniscus_lat_r.force.Z	femur_lat_meniscii_r.meniscus_lat_r.torque.X	femur_lat_meniscii_r.meniscus_lat_r.torque.Y	femur_lat_meniscii_r.meniscus_lat_r.torque.Z	femur_med_meniscii_r.femur_med_r.force.X	femur_med_meniscii_r.femur_med_r.force.Y	femur_med_meniscii_r.femur_med_r.force.Z	femur_med_meniscii_r.femur_med_r.torque.X	femur_med_meniscii_r.femur_med_r.torque.Y	femur_med_meniscii_r.femur_med_r.torque.Z	femur_med_meniscii_r.meniscus_med_r.force.X	femur_med_meniscii_r.meniscus_med_r.force.Y	femur_med_meniscii_r.meniscus_med_r.force.Z	femur_med_meniscii_r.meniscus_med_r.torque.X	femur_med_meniscii_r.meniscus_med_r.torque.Y	femur_med_meniscii_r.meniscus_med_r.torque.Z	femur_med_tibia_r.tibia_upper_r.force.X	femur_med_tibia_r.tibia_upper_r.force.Y	femur_med_tibia_r.tibia_upper_r.force.Z	femur_med_tibia_r.tibia_upper_r.torque.X	femur_med_tibia_r.tibia_upper_r.torque.Y	femur_med_tibia_r.tibia_upper_r.torque.Z	femur_med_tibia_r.femur_med_r.force.X	femur_med_tibia_r.femur_med_r.force.Y	femur_med_tibia_r.femur_med_r.force.Z	femur_med_tibia_r.femur_med_r.torque.X	femur_med_tibia_r.femur_med_r.torque.Y	femur_med_tibia_r.femur_med_r.torque.Z	femur_lat_tibia_r.tibia_upper_r.force.X	femur_lat_tibia_r.tibia_upper_r.force.Y	femur_lat_tibia_r.tibia_upper_r.force.Z	femur_lat_tibia_r.tibia_upper_r.torque.X	femur_lat_tibia_r.tibia_upper_r.torque.Y	femur_lat_tibia_r.tibia_upper_r.torque.Z	femur_lat_tibia_r.femur_lat_r.force.X	femur_lat_tibia_r.femur_lat_r.force.Y	femur_lat_tibia_r.femur_lat_r.force.Z	femur_lat_tibia_r.femur_lat_r.torque.X	femur_lat_tibia_r.femur_lat_r.torque.Y	femur_lat_tibia_r.femur_lat_r.torque.Z	aACL_R	pACL_R	aPCL_R	pPCL_R	aMCL_R	mMCL_R	pMCL_R	aLCL_R	mLCL_R	pLCL_R	aPCL_L	pPCL_L	aMCL_L	aLCL_L
      0.16345253	     11.48355896	      8.38429554	      9.01821357	      3.87041359	      4.49767542	      4.87164584	      0.00000000	    169.91463252	    126.45884524	    281.32222991	    132.94374584	      8.34494524	      6.00694522	      3.06161584	      3.65639031	      6.16537029	      5.09183099	      3.26704783	    102.40034845	      5.41371691	      8.23573112	      6.18947144	     27.61840818	     18.61043386	      5.32274438	      3.66774505	      6.25319676	     53.06766598	     31.20718721	     33.21375159	     44.62914803	      0.00000000	      0.00000000	      0.00000000	      0.00000000	      0.00000000	      0.00000000	     35.03503328	      2.00121021	      2.34067128	     23.60276587	     40.71280206	     10.68557947	     11.48355896	      8.38429554	      9.01821357	      3.87041359	      4.49767542	      4.87164584	      0.00000000	      6.21496291	     12.26854721	     10.59429037	      2.20832269	      8.34494524	      6.00694522	      3.06161584	      3.65639031	      6.16537029	      5.44413965	      3.26704783	      2.27987279	      5.41371691	      8.23573112	      6.18947144	     27.61840818	     18.61043386	      5.32274438	      3.66774505	      6.25319676	     17.09814565	      0.00000000	      0.00000000	      0.00000000	     21.19531733	     10.01767405	     50.99915901	     51.08519589	      5.47247001	      4.89711230	     13.30088662	      7.11711061	     18.25038307	      2.87739386	      8.87758716	      2.78821114	     36.43136112	     36.43136112	     13.54139222	     13.54139222	     30.89906977	     30.89906977	     53.06015396	    122.78995019	     13.40105735	     -8.38962733	      1.26736877	     20.44626630	    -53.06015396	   -122.78995019	    -13.40105735	      3.39231561	     -1.61726568	      2.54609512	     13.97169992	     13.37108485	      9.53740448	     -3.55542734	     -0.33306898	      5.63921839	    -13.97169992	    -13.37108485	     -9.53740448	     -0.10698091	      0.11807925	      0.02738777	   -808.43721239	   -736.64964705	    226.45173672	    -16.98971138	     18.12410515	     -1.89045195	    808.43721239	    736.64964705	   -226.45173672	    105.45599407	    -14.65031451	    329.01711780	     -1.48090552	     -1.87347744	     -0.61448178	      0.06095559	     -0.05194311	      0.01144782	      1.48090552	      1.87347744	      0.61448178	     -0.29547200	      0.03726098	      0.59850236	     -8.44363465	      0.00000000	    569.73599595	    378.54754774	      0.00000000	      0.00000000	      0.00000000	      0.00000000	      0.00000000	      0.00000000	      0.00000000	      0.00000000	      0.00000001	      0.00000000
      0.16388286	     11.46262490	      8.36890029	      9.00145651	      3.86359732	      4.49021596	      4.86212098	      0.00000000	    170.11122253	    126.23450419	    281.21475530	    133.00190286	      8.32944637	      5.99646463	      3.23303834	      3.64955511	      6.15298565	      5.08520549	      3.26125303	    102.44381482	      5.40373608	      8.22051361	      6.17785833	     27.59003100	     18.57807110	      5.31316661	      3.66306384	      6.24879299	     53.41675172	     31.19287494	     33.19944180	     44.60463899	      0.00000000	      0.00000000	      0.00000000	      0.00000000	      0.00000000	      0.00000000	     35.10182007	      2.02235152	      2.37747769	     27.50237597	     40.99263575	     10.75277505	     11.46262490	      8.36890029	      9.00145651	      3.86359732	      4.49021596	      4.86212098	      0.00000000	      6.20283179	     12.24520057	     10.57520488	      2.20445171	      8.32944637	      5.99646463	      3.23303834	      3.64955511	      6.15298565	      5.43651054	      3.26125303	      2.27580622	      5.40373608	      8.22051361	      6.17785833	     27.59003100	     18.57807110	      5.31316661	      3.66306384	      6.24879299	     17.06240634	      0.00000000	      0.00000000	      0.00000000	     21.18540438	     10.01146226	     50.91439450	     51.03998933	      5.46290067	      4.88847356	     13.27469150	      7.10226216	     18.22274151	      2.87240864	      8.85804964	      2.78232705	     36.36705723	     36.36705723	     13.51557466	     13.51557466	     30.87565792	     30.87565792	     53.44158565	    121.13099936	     12.80277297	     -8.09645536	      1.26928217	     20.61238002	    -53.44158565	   -121.13099936	    -12.80277297	      3.32787285	     -1.60892215	      2.50616946	     14.19798338	     13.22710184	      9.41221560	     -3.50743274	     -0.33766549	      5.72849132	    -14.19798338	    -13.22710184	     -9.41221560	     -0.10733268	      0.12405610	      0.02443815	   -812.99200039	   -735.63581668	    227.32417523	    -16.96933583	     18.24011091	     -1.84286054	    812.99200039	    735.63581668	   -227.32417523	    105.79065445	    -14.74335231	    330.81518513	     -1.29279440	     -1.59226859	     -0.51643040	      0.05157195	     -0.04483181	      0.00913676	      1.29279440	      1.59226859	      0.51643040	     -0.24866109	      0.03237259	      0.52265642	     -8.35196697	      0.00000000	    574.71757130	    380.80546245	      0.00000000	      0.00000000	      0.00000000	      0.00000000	      0.00000000	      0.00000000	      0.00000000	      0.00000000	      0.00000001	      0.00000000
      0.16407389	     11.45335307	      8.36209438	      8.99404866	      3.86058388	      4.48691828	      4.85790999	      0.00000000	    170.19280866	    126.14149794	    281.17167997	    133.02345844	      8.32259474	      5.99183116	      3.29937688	      3.64653342	      6.14751063	      5.08202743	      3.25869120	    102.45938544	      5.39932386	      8.21378643	      6.17272456	     27.57748684	     18.56376525	      5.30893241	      3.66099458	      6.24681336	     53.57379521	     31.19091555	     33.19528653	     44.59470001	      0.00000000	      0.00000000	      0.00000000	      0.00000000	      0.00000000	      0.00000000	     35.13122806	      2.03167292	      2.39387439	     23.16400647	     41.12127849	     10.78478132	     11.45335307	      8.36209438	      8.99404866	      3.86058388	      4.48691828	      4.85790999	      0.00000000	      6.19746899	     12.23486105	     10.56676749	      2.20274036	      8.32259474	      5.99183116	      3.29937688	      3.64653342	      6.14751063	      5.43313763	      3.25869120	      2.27400843	      5.39932386	      8.21378643	      6.17272456	     27.57748684	     18.56376525	      5.30893241	      3.66099458	      6.24681336	     17.04660296	      0.00000000	      0.00000000	      0.00000000	     21.18092945	     10.00867220	     50.87677792	     51.01998159	      5.45863514	      4.88461380	     13.26310027	      7.09569322	     18.21049791	      2.87020491	      8.84948160	      2.77975426	     36.33862880	     36.33862880	     13.50416151	     13.50416151	     30.86530885	     30.86530885	     53.49314040	    121.08961491	     12.62640993	     -8.02588216	      1.26797133	     20.62863708	    -53.49314040	   -121.08961491	    -12.62640993	      3.32541251	     -1.60469835	      2.51468150	     14.31071806	     13.19452815	      9.35870633	     -3.48628799	     -0.34001418	      5.77300850	    -14.31071806	    -13.19452815	     -9.35870633	     -0.10807560	      0.12696184	      0.02363123	   -815.59709859	   -734.06003448	    229.38775033	    -16.99191514	     18.35164094	     -1.87182013	    815.59709859	    734.06003448	   -229.38775033	    106.61654843	    -14.81111959	    331.86566672	     -1.20148853	     -1.46582492	     -0.49219068	      0.04796115	     -0.04207628	      0.00825151	      1.20148853	      1.46582492	      0.49219068	     -0.23588216	      0.03022437	      0.48578013	     -8.36875365	      0.00000000	    576.92523332	    381.83178003	      0.00000000	      0.00000000	      0.00000000	      0.00000000	      0.00000000	      0.00000000	      0.00000000	      0.00000000	      0.00000001	      0.00000000
      0.16453263	     11.43114301	      8.34582224	      8.97633755	      3.85337876	      4.47903387	      4.84784135	      0.00000000	    170.36992201	    125.93231242	    281.06770932	    133.06117324	      8.30621347	      5.98075244	      3.43823110	      3.63930894	      6.13442036	      5.07373065	      3.25256596	    102.48476236	      5.38877500	      8.19770284	      6.16045065	     27.54749712	     18.52956411	      5.29880875	      3.65604774	      6.24199852	     53.94882031	     31.17193411	     33.17547313	     44.56254584	      0.00000000	      0.00000000	      0.00000000	      0.00000000	      0.00000000	      0.00000000	     35.20129629	      2.05362320	      2.43311244	     11.02666158	     41.41958208	     10.85671531	     11.43114301	      8.34582224	      8.97633755	      3.85337876	      4.47903387	      4.84784135	      0.00000000	      6.18464745	     12.21009494	     10.54659437	      2.19864851	      8.30621347	      5.98075244	      3.43823110	      3.63930894	      6.13442036	      5.42507276	      3.25256596	      2.26971000	      5.38877500	      8.19770284	      6.16045065	     27.54749712	     18.52956411	      5.29880875	      3.65604774	      6.24199852	     17.00880946	      0.00000000	      0.00000000	      0.00000000	     21.16999872	     10.00189164	     50.78648452	     50.97208881	      5.44834746	      4.87528191	     13.23536013	      7.07997590	     18.18116585	      2.86493637	      8.82916933	      2.77367412	     36.27065696	     36.27065696	     13.47687454	     13.47687454	     30.84056741	     30.84056741	     55.49016590	    119.89969864	     12.55452309	     -7.95850351	      1.32115558	     21.46020321	    -55.49016590	   -119.89969864	    -12.55452309	      3.28427325	     -1.66081556	      2.44344807	     14.61181377	     13.22012958	      9.29408153	     -3.45904421	     -0.34562997	      5.89140829	    -14.61181377	    -13.22012958	     -9.29408153	     -0.11083149	      0.13256531	      0.02408761	   -822.68334980	   -733.94900515	    230.11180869	    -16.97566833	     18.50766194	     -1.85177072	    822.68334980	    733.94900515	   -230.11180869	    106.90120030	    -14.95017820	    334.69539992	     -1.02479687	     -1.25119547	     -0.42101069	      0.04089506	     -0.03599683	      0.00745098	      1.02479687	      1.25119547	      0.42101069	     -0.20166006	      0.02581896	      0.41412021	     -8.42276054	      0.00000000	    582.25583495	    384.43691799	      0.00000000	      0.00000000	      0.00000000	      0.00000000	      0.00000000	      0.00000000	      0.00000000	      0.00000000	      0.00000001	      0.00000000
